{"title":"30 Minutes Or Less 2011 CaM XviD - ILLUMINATI","uid":6751335,"size":1417408103,"categoryP":"video","categoryS":"movies","magnet":"?xt=urn:btih:ce665b2c96ec8e37998d814ade3f5d8cc53280fb&amp;dn=30+Minutes+Or+Less+2011+CaM+XviD+-+ILLUMINATI&amp;tr=udp%3A%2F%2Ftracker.openbittorrent.com%3A80&amp;tr=udp%3A%2F%2Fopen.demonii.com%3A1337&amp;tr=udp%3A%2F%2Ftracker.coppersurfer.tk%3A6969&amp;tr=udp%3A%2F%2Fexodus.desync.com%3A6969","seeders":0,"leechers":1,"uploader":"HeroMaster","files":-1,"time":1318886637,"description":"30 Minutes Or Less 2011 CaM XviD - ILLUMINATI\n\nTitle: 30 Minutes Or Less 2011 CaM XviD - ILLUMINATI\nFormat: Xvid\nSubtitles: No\n\nIMDB: http://www.imdb.com/title/tt1622547/\n\nTwo fledgling criminals kidnap a pizza delivery guy, strap a bomb to his chest,\nand inform him that he has mere hours to rob a bank or else...\n\nSource:\nVideo: Relizlab - Thanks\nAudio:          - Thanks\n\nRelease Notes:\nOk here we are with our.... 30 Minutes Or Less 2011 CaM XviD - ILLUMINATI release\nVideo is not to bad more than watchable so big thanks to Relizlab on that\nAudio is cam a few luaghs here and there but what do you expect for a comedy\n\nInfo:\nID                               : 0\nFormat                           : MPEG-4 Visual\nFormat profile                   : Advanced Simple@L5\nFormat settings, BVOP            : 2\nFormat settings, QPel            : No\nFormat settings, GMC             : No warppoints\nFormat settings, Matrix          : Default (H.263)\nMuxing mode                      : Packed bitstream\nCodec ID                         : XVID\nCodec ID/Hint                    : XviD\nDuration                         : 1h 14mn\nBit rate                         : 2 384 Kbps\nWidth                            : 720 pixels\nHeight                           : 304 pixels\nDisplay aspect ratio             : 2.35:1\nFrame rate                       : 25.000 fps\nColor space                      : YUV\nChroma subsampling               : 4:2:0\nBit depth                        : 8 bits\nScan type                        : Progressive\nCompression mode                 : Lossy\nBits/(Pixel*Frame)               : 0.436\nStream size                      : 1.25 GiB (95%)\nWriting library                  : XviD 64\n\nID                               : 1\nFormat                           : MPEG Audio\nFormat version                   : Version 1\nFormat profile                   : Layer 3\nMode                             : Joint stereo\nMode extension                   : MS Stereo\nCodec ID                         : 55\nCodec ID/Hint                    : MP3\nDuration                         : 1h 14mn\nBit rate mode                    : Constant\nBit rate                         : 128 Kbps\nChannel(s)                       : 2 channels\nSampling rate                    : 44.1 KHz\nCompression mode                 : Lossy\nStream size                      : 68.5 MiB (5%)\nAlignment                        : Split accross interleaves\nInterleave, duration             : 40 ms (1.00 video frame)\nWriting library                  : LAME3.98r\nEncoding settings                : -m j -V 4 -q 2 -lowpass 17 -b 128\n\n\nPoster:\n\n &lt;a href=&quot;\nhttp://shareimage.org/images/shtkkeov4o4b3urwzmwv.jpg&quot; rel=&quot;nofollow&quot; target=&quot;_NEW&quot;&gt;\nhttp://shareimage.org/images/shtkkeov4o4b3urwzmwv.jpg&lt;/a&gt;\n\n\nScreens:\n\n &lt;a href=&quot;\nhttp://shareimage.org/images/mvgcxmff00a8hw0j6cb.png&quot; rel=&quot;nofollow&quot; target=&quot;_NEW&quot;&gt;\nhttp://shareimage.org/images/mvgcxmff00a8hw0j6cb.png&lt;/a&gt;\n &lt;a href=&quot;\nhttp://shareimage.org/images/1ygt3kpe7a8g6zleqjd.png&quot; rel=&quot;nofollow&quot; target=&quot;_NEW&quot;&gt;\nhttp://shareimage.org/images/1ygt3kpe7a8g6zleqjd.png&lt;/a&gt;\n &lt;a href=&quot;\nhttp://shareimage.org/images/up38skt7wmfzrpsesh.png&quot; rel=&quot;nofollow&quot; target=&quot;_NEW&quot;&gt;\nhttp://shareimage.org/images/up38skt7wmfzrpsesh.png&lt;/a&gt;\n\n\nENJOY!","torrent":{"xt":"urn:btih:ce665b2c96ec8e37998d814ade3f5d8cc53280fb","amp;dn":"30+Minutes+Or+Less+2011+CaM+XviD+-+ILLUMINATI","amp;tr":["udp%3A%2F%2Ftracker.openbittorrent.com%3A80","udp%3A%2F%2Fopen.demonii.com%3A1337","udp%3A%2F%2Ftracker.coppersurfer.tk%3A6969","udp%3A%2F%2Fexodus.desync.com%3A6969"],"infoHash":"ce665b2c96ec8e37998d814ade3f5d8cc53280fb","infoHashBuffer":{"type":"Buffer","data":[206,102,91,44,150,236,142,55,153,141,129,74,222,63,93,140,197,50,128,251]},"announce":[],"urlList":[]}}